<?xml version="1.0" encoding="utf-8"?>
<!-- Generator: Adobe Illustrator 16.0.0, SVG Export Plug-In . SVG Version: 6.00 Build 0)  -->
<!DOCTYPE svg PUBLIC "-//W3C//DTD SVG 1.1//EN" "http://www.w3.org/Graphics/SVG/1.1/DTD/svg11.dtd">
<svg version="1.1" id="Capa_1" xmlns="http://www.w3.org/2000/svg" xmlns:xlink="http://www.w3.org/1999/xlink" x="0px" y="0px"
	 width="220.007px" height="120px" viewBox="0 0 220.007 120" enable-background="new 0 0 220.007 120" xml:space="preserve">
<g>
	<g>
		<path fill-rule="evenodd" clip-rule="evenodd" fill="#18C8BE" d="M43.86,39.964v32.84c0,0.916,0.749,1.661,1.669,1.661h137.205
			c1.594,0.04,5.302,0.525,5.302,4.164v9.203c0,0.707,0.431,1.319,1.098,1.562c0.191,0.069,0.387,0.103,0.58,0.103
			c0.48,0,0.944-0.209,1.27-0.595l9.271-10.976c2.373-2.732,6.075-3.341,8.069-3.459l10.01-0.002c0.92,0,1.67-0.745,1.67-1.661
			v-32.84H43.86z M218.871,72.805c0,0.295-0.24,0.536-0.537,0.536h-9.963c-0.037,0-0.072,0.001-0.112,0.002
			c-2.174,0.131-6.217,0.804-8.865,3.854l-9.275,10.981c-0.226,0.267-0.514,0.189-0.598,0.158c-0.082-0.029-0.354-0.155-0.354-0.503
			V78.63c0-1.204-0.462-5.141-6.418-5.289H45.529c-0.297,0-0.538-0.241-0.538-0.536V41.09h173.88V72.805z M60.804,60.858
			c-0.377,0.188-0.884,0.281-1.521,0.281c-1.086,0-1.83-0.214-2.232-0.643c-0.229-0.24-0.377-0.646-0.444-1.218h-3.277
			c0,1.263,0.464,2.303,1.392,3.119c0.928,0.815,2.365,1.224,4.312,1.224c1.909,0,3.319-0.386,4.232-1.156s1.369-1.766,1.369-2.983
			c0-0.926-0.317-1.696-0.952-2.312c-0.643-0.609-1.607-1.064-2.896-1.365c-1.931-0.421-3.056-0.718-3.374-0.891
			c-0.318-0.166-0.478-0.433-0.478-0.801c0-0.294,0.149-0.55,0.449-0.768s0.802-0.327,1.506-0.327c0.856,0,1.463,0.218,1.819,0.654
			c0.189,0.241,0.308,0.568,0.353,0.981h3.232c-0.145-1.504-0.703-2.562-1.677-3.174c-0.973-0.613-2.232-0.92-3.778-0.92
			c-1.629,0-2.892,0.408-3.789,1.224c-0.898,0.816-1.347,1.792-1.347,2.927c0,0.963,0.287,1.699,0.861,2.211
			c0.575,0.519,1.564,0.951,2.969,1.297c1.95,0.459,3.077,0.782,3.381,0.97c0.303,0.188,0.454,0.463,0.454,0.824
			C61.368,60.389,61.18,60.671,60.804,60.858z M72.107,63.622c2.124,0,3.708-0.641,4.751-1.922c1.043-1.28,1.564-2.823,1.564-4.626
			c0-1.773-0.521-3.31-1.564-4.61c-1.043-1.3-2.627-1.949-4.751-1.949c-2.125,0-3.708,0.649-4.751,1.949
			c-1.044,1.3-1.565,2.836-1.565,4.61c0,1.803,0.521,3.346,1.565,4.626C68.399,62.981,69.982,63.622,72.107,63.622z M69.913,54.23
			c0.51-0.665,1.237-0.998,2.183-0.998s1.671,0.333,2.177,0.998c0.507,0.664,0.76,1.612,0.76,2.844s-0.253,2.181-0.76,2.85
			c-0.506,0.668-1.231,1.002-2.177,1.002s-1.673-0.334-2.183-1.002c-0.51-0.669-0.766-1.618-0.766-2.85S69.403,54.895,69.913,54.23z
			 M83.328,64.49c-0.163,0.406-0.339,0.674-0.527,0.801c-0.196,0.136-0.438,0.223-0.726,0.26c-0.287,0.038-0.59,0.049-0.907,0.034
			l-0.408-0.022v2.571c0.348,0.022,0.609,0.036,0.783,0.039c0.174,0.004,0.404,0.006,0.692,0.006c1.431,0,2.384-0.28,2.86-0.84
			c0.478-0.561,1.125-2.006,1.943-4.338l4.237-12.091H87.84l-2.551,9.069L82.59,50.91h-3.595l4.542,12.836
			C83.56,63.836,83.49,64.085,83.328,64.49z M95.83,61.637c0.343,0.519,0.692,0.913,1.05,1.185c0.654,0.488,1.477,0.732,2.466,0.732
			c1.552,0,2.82-0.567,3.806-1.702c0.985-1.136,1.478-2.787,1.478-4.953c0-2.053-0.504-3.609-1.512-4.668
			c-1.008-1.061-2.238-1.591-3.691-1.591c-0.997,0-1.856,0.274-2.579,0.823c-0.396,0.309-0.769,0.729-1.118,1.263V50.91h-3.096
			v17.134h3.197V61.637z M96.06,55.105c0.442-1.105,1.256-1.658,2.44-1.658c0.984,0,1.697,0.365,2.136,1.094
			c0.439,0.729,0.659,1.568,0.659,2.516c0,1.15-0.238,2.071-0.717,2.764c-0.477,0.691-1.17,1.038-2.079,1.038
			c-0.626,0-1.169-0.169-1.627-0.508c-0.771-0.579-1.156-1.583-1.156-3.012C95.716,56.437,95.831,55.692,96.06,55.105z
			 M109.664,57.327c0-0.984,0.125-1.714,0.375-2.188c0.445-0.843,1.318-1.264,2.619-1.264c0.098,0,0.227,0.004,0.385,0.012
			c0.159,0.007,0.341,0.022,0.545,0.045v-3.293c-0.144-0.008-0.236-0.013-0.277-0.017c-0.042-0.004-0.094-0.007-0.153-0.007
			c-0.968,0-1.754,0.253-2.358,0.757c-0.37,0.301-0.806,0.861-1.305,1.68V50.91h-3.084v12.295h3.254V57.327z M120.574,63.622
			c2.123,0,3.707-0.641,4.749-1.922c1.044-1.28,1.565-2.823,1.565-4.626c0-1.773-0.521-3.31-1.565-4.61
			c-1.042-1.3-2.626-1.949-4.749-1.949c-2.125,0-3.709,0.649-4.752,1.949c-1.043,1.3-1.564,2.836-1.564,4.61
			c0,1.803,0.521,3.346,1.564,4.626C116.865,62.981,118.449,63.622,120.574,63.622z M118.378,54.23
			c0.511-0.665,1.238-0.998,2.184-0.998c0.944,0,1.67,0.333,2.178,0.998c0.506,0.664,0.759,1.612,0.759,2.844
			s-0.253,2.181-0.759,2.85c-0.508,0.668-1.233,1.002-2.178,1.002c-0.945,0-1.673-0.334-2.184-1.002
			c-0.51-0.669-0.766-1.618-0.766-2.85S117.869,54.895,118.378,54.23z M133.778,63.205l4.668-11.966h-1.51l-3.901,10.256
			l-3.901-10.256h-1.51l4.598,11.966H133.778z M141.721,46.572h-1.533v2.056h1.533V46.572z M140.258,63.205h1.393V51.239h-1.393
			V63.205z M145.633,61.715c0.441,0.562,1.002,1.004,1.684,1.328c0.682,0.323,1.51,0.484,2.485,0.484
			c0.388,0,0.781-0.054,1.185-0.161c0.402-0.107,0.793-0.262,1.173-0.462c0.379-0.199,0.728-0.45,1.045-0.751
			c0.317-0.3,0.576-0.65,0.777-1.051h0.047v2.103h1.393V46.572h-1.393v6.583c-0.448-0.739-1.064-1.296-1.847-1.674
			c-0.781-0.377-1.599-0.565-2.449-0.565c-0.914,0-1.707,0.173-2.381,0.52s-1.23,0.809-1.672,1.385
			c-0.441,0.578-0.771,1.252-0.986,2.021c-0.218,0.771-0.326,1.571-0.326,2.402c0,0.878,0.101,1.702,0.303,2.472
			C144.872,60.486,145.192,61.152,145.633,61.715z M146.04,55.478c0.154-0.655,0.402-1.229,0.743-1.722
			c0.341-0.492,0.774-0.882,1.302-1.166c0.525-0.285,1.152-0.428,1.881-0.428c0.635,0,1.203,0.135,1.706,0.404
			c0.503,0.269,0.93,0.631,1.277,1.085c0.349,0.454,0.616,0.985,0.801,1.594c0.186,0.608,0.279,1.252,0.279,1.929
			c0,0.725-0.09,1.398-0.268,2.021c-0.178,0.624-0.437,1.163-0.777,1.617s-0.767,0.812-1.276,1.074
			c-0.512,0.262-1.093,0.393-1.742,0.393c-0.59,0-1.131-0.104-1.627-0.312c-0.494-0.208-0.928-0.512-1.3-0.913
			c-0.372-0.4-0.662-0.889-0.87-1.467c-0.21-0.577-0.314-1.243-0.314-1.998C145.823,56.837,145.885,56.132,146.04,55.478z
			 M159.16,61.715c0.449,0.562,1.022,1.005,1.719,1.328c0.697,0.323,1.525,0.484,2.485,0.484c0.759,0,1.425-0.1,1.997-0.3
			c0.572-0.199,1.068-0.48,1.486-0.843s0.767-0.786,1.045-1.271c0.279-0.484,0.504-1.012,0.674-1.582h-1.556
			c-0.218,0.878-0.649,1.557-1.301,2.033c-0.649,0.478-1.433,0.716-2.346,0.716c-0.665,0-1.254-0.127-1.765-0.381
			c-0.512-0.254-0.934-0.593-1.266-1.017c-0.334-0.423-0.584-0.924-0.756-1.502c-0.17-0.577-0.255-1.189-0.255-1.836h9.336
			c0.016-2.156-0.448-3.8-1.394-4.933c-0.943-1.131-2.244-1.697-3.901-1.697c-0.866,0-1.642,0.165-2.322,0.496
			s-1.258,0.786-1.73,1.363c-0.472,0.578-0.836,1.251-1.091,2.021c-0.256,0.771-0.383,1.594-0.383,2.472s0.107,1.698,0.324,2.46
			C158.378,60.49,158.71,61.152,159.16,61.715z M159.718,54.772c0.2-0.508,0.468-0.955,0.801-1.34s0.735-0.693,1.207-0.924
			c0.473-0.23,1.019-0.346,1.638-0.346s1.169,0.112,1.649,0.335c0.479,0.223,0.878,0.523,1.195,0.9
			c0.317,0.378,0.558,0.824,0.721,1.34c0.162,0.517,0.244,1.067,0.244,1.652h-7.851C159.384,55.82,159.516,55.281,159.718,54.772z
			 M172.304,56.759c0-0.415,0.016-0.8,0.047-1.154s0.116-0.724,0.256-1.109c0.107-0.308,0.263-0.601,0.465-0.878
			c0.201-0.277,0.444-0.523,0.73-0.739c0.287-0.215,0.607-0.388,0.965-0.519c0.355-0.131,0.75-0.196,1.184-0.196
			c1.115,0,1.912,0.27,2.393,0.808c0.479,0.539,0.72,1.348,0.72,2.426v7.808h1.394v-7.831c0-0.492-0.027-0.966-0.082-1.421
			c-0.054-0.454-0.229-0.896-0.521-1.328c-0.434-0.63-0.969-1.074-1.603-1.328c-0.636-0.254-1.324-0.382-2.067-0.382
			c-0.836,0-1.553,0.186-2.148,0.555c-0.596,0.37-1.172,0.848-1.73,1.432v-1.663h-1.393v11.965h1.393V56.759z M184.102,61.715
			c0.448,0.562,1.021,1.004,1.718,1.328c0.697,0.323,1.524,0.484,2.485,0.484c0.758,0,1.432-0.107,2.021-0.322
			c0.588-0.216,1.095-0.521,1.521-0.913c0.425-0.393,0.773-0.862,1.044-1.409c0.271-0.546,0.469-1.151,0.593-1.813h-1.486
			c-0.17,1.001-0.569,1.787-1.196,2.356c-0.627,0.57-1.459,0.854-2.496,0.854c-0.729,0-1.348-0.142-1.857-0.427
			c-0.512-0.285-0.93-0.667-1.254-1.144c-0.326-0.478-0.562-1.017-0.709-1.617c-0.147-0.601-0.221-1.217-0.221-1.849
			c0-0.616,0.078-1.228,0.232-1.836s0.395-1.155,0.721-1.641c0.324-0.485,0.742-0.874,1.254-1.167
			c0.51-0.292,1.121-0.438,1.834-0.438c0.93,0,1.695,0.251,2.299,0.75c0.604,0.5,1.029,1.197,1.277,2.09h1.417
			c-0.218-1.4-0.755-2.432-1.614-3.095c-0.859-0.661-1.985-0.992-3.379-0.992c-0.898,0-1.691,0.173-2.381,0.52
			s-1.266,0.812-1.729,1.397c-0.465,0.585-0.816,1.259-1.057,2.021c-0.239,0.762-0.359,1.56-0.359,2.391
			c0,0.878,0.108,1.702,0.324,2.472C183.32,60.486,183.653,61.152,184.102,61.715z M196.015,63.205h1.394V51.239h-1.394V63.205z
			 M197.479,46.572h-1.533v2.056h1.533V46.572z M207.86,55.835c-0.232,0.107-0.531,0.192-0.895,0.255
			c-0.364,0.062-0.678,0.107-0.941,0.138l-1.927,0.255c-2.803,0.369-4.204,1.57-4.204,3.604c0,0.586,0.108,1.09,0.325,1.513
			c0.217,0.424,0.511,0.782,0.883,1.074c0.372,0.293,0.802,0.509,1.289,0.647s0.995,0.207,1.521,0.207
			c0.882,0,1.702-0.169,2.462-0.508c0.758-0.338,1.432-0.832,2.02-1.479c0,0.216,0.016,0.42,0.047,0.612
			c0.031,0.193,0.089,0.37,0.175,0.531c0.085,0.162,0.196,0.301,0.337,0.416c0.139,0.115,0.324,0.188,0.557,0.22
			c0.201,0.046,0.41,0.069,0.627,0.069c0.201,0,0.406-0.031,0.615-0.093s0.367-0.107,0.477-0.139v-1.085
			c-0.589,0.215-0.979,0.25-1.173,0.104c-0.194-0.146-0.29-0.489-0.29-1.028v-6.515c0-0.693-0.112-1.278-0.337-1.756
			c-0.226-0.476-0.534-0.858-0.929-1.143c-0.395-0.284-0.859-0.492-1.395-0.623c-0.533-0.131-1.103-0.197-1.707-0.197
			c-0.65,0-1.266,0.074-1.846,0.22c-0.58,0.146-1.092,0.378-1.533,0.693c-0.44,0.315-0.801,0.725-1.08,1.224
			c-0.278,0.5-0.44,1.104-0.486,1.813h1.416c0.062-0.524,0.189-0.959,0.383-1.306s0.441-0.624,0.743-0.831
			c0.302-0.208,0.654-0.354,1.058-0.439c0.402-0.085,0.844-0.127,1.323-0.127c1.083,0,1.854,0.228,2.311,0.681
			c0.456,0.454,0.685,1.036,0.685,1.744c0,0.216-0.027,0.45-0.081,0.704S208.092,55.728,207.86,55.835z M208.37,58.792
			c0,0.601-0.123,1.12-0.371,1.56c-0.248,0.438-0.576,0.801-0.986,1.086c-0.411,0.285-0.879,0.496-1.405,0.636
			c-0.526,0.138-1.069,0.207-1.626,0.207c-0.324,0-0.646-0.042-0.964-0.127c-0.317-0.084-0.597-0.215-0.836-0.393
			c-0.24-0.177-0.434-0.4-0.581-0.67c-0.146-0.27-0.221-0.59-0.221-0.959c0-0.816,0.299-1.424,0.895-1.825
			c0.596-0.399,1.428-0.639,2.497-0.716c0.604-0.046,1.207-0.107,1.812-0.185c0.604-0.077,1.199-0.238,1.787-0.485V58.792z
			 M15.763,62.248h2.059c-0.003-0.453,0.229-1.025,0.229-1.025l0.029-0.079h-2.561l0.016,0.079
			C15.535,61.223,15.766,61.795,15.763,62.248z M31.819,34.261l-0.393,0.717c-0.358-0.197-0.768-0.406-1.133-0.591l0.368-0.737
			c-0.653-0.326-1.339-0.639-2.016-0.917l-1.519,3.674c-1.234-0.516-2.254-0.834-3.573-1.163l0.841-3.901
			c-0.601-0.149-1.209-0.283-1.823-0.397l-0.155,0.807c-0.413-0.076-0.828-0.142-1.247-0.201l0.117-0.817
			c-0.723-0.104-1.409-0.178-2.151-0.229l-0.283,3.961c-0.635-0.044-1.31-0.059-1.956-0.059s-1.321,0.015-1.956,0.059l-0.283-3.961
			c-0.742,0.052-1.429,0.126-2.152,0.229l0.118,0.817c-0.418,0.06-0.833,0.125-1.246,0.201l-0.156-0.807
			c-0.613,0.114-1.222,0.248-1.823,0.397l0.842,3.901c-1.32,0.329-2.34,0.647-3.574,1.163l-1.518-3.674
			c-0.678,0.278-1.364,0.591-2.017,0.917l0.367,0.737c-0.365,0.185-0.773,0.394-1.132,0.591l-0.394-0.717
			c-0.686,0.379-1.313,0.755-1.969,1.183l5.033,7.716c-0.31,0.209-0.849,0.587-1.181,0.835H2.288v25.113
			c0,1.929,0.739,3.697,1.948,5.025c1.968,2.184,5.979,5.307,12.665,5.464c6.689-0.157,10.688-3.28,12.655-5.464
			c1.209-1.328,1.949-3.097,1.949-5.025V43.995h-1.57c-0.331-0.248-0.87-0.626-1.179-0.835l5.031-7.716
			C33.132,35.016,32.505,34.64,31.819,34.261z M20.851,33.647c0.042-0.269,0.339-0.44,0.607-0.398l0.111,0.017
			c0.27,0.042,0.491,0.308,0.449,0.577l-0.481,2.744l-1.057-0.167L20.851,33.647z M12.222,33.266l0.11-0.017
			c0.271-0.042,0.567,0.13,0.608,0.398l0.369,2.772l-1.056,0.167l-0.482-2.744C11.731,33.573,11.953,33.308,12.222,33.266z
			 M16.891,41.004h0.01c3.911,0,7.523,1.089,10.616,2.99H6.276C9.367,42.093,12.98,41.004,16.891,41.004z M16.901,47.807H16.89
			c0.002,0,0.003,0,0.005,0c-0.762-0.002-1.411-0.438-1.645-1.042c-0.01-0.072-0.002-0.097,0.013-0.117l0.972-1.157l-0.248-0.306
			c-0.017-0.094,0.016-0.129,0.06-0.129h1.7c0.076,0.099,0.069,0.115,0.059,0.129l-0.249,0.306l0.973,1.157
			c0.021,0.088,0.019,0.104,0.013,0.118c-0.234,0.603-0.883,1.038-1.646,1.041C16.897,47.807,16.899,47.807,16.901,47.807z
			 M15.631,58.545l-0.155,1.997h2.633l-0.063-0.821c0.423,0.222,0.854,0.453,1.29,0.697c3.373,1.886,5.946,2.908,7.047,3.307h-7.9
			c-0.301-0.277-0.464-0.604-0.552-0.874h-2.274c-0.088,0.27-0.252,0.597-0.553,0.874H7.159v-8.023
			C8.171,55.9,11.397,56.627,15.631,58.545z M13.265,56.598c0.605-0.266,1.531-0.666,2.604-1.115l-0.013,0.166l-0.152,1.95
			C14.884,57.226,14.103,56.909,13.265,56.598z M4.749,39.287l-1.35-2.438c-0.127-0.241-0.004-0.563,0.237-0.691l0.099-0.053
			c0.242-0.126,0.578-0.061,0.706,0.181l1.252,2.5L4.749,39.287z M6.371,69.713c-0.235,0.604-0.883,1.038-1.646,1.04
			c0.002,0,0.004,0.001,0.006,0.001H4.719c0.002,0,0.004-0.001,0.006-0.001c-0.763-0.002-1.412-0.438-1.646-1.04
			c-0.008-0.073-0.001-0.099,0.014-0.118l0.972-1.156l-0.247-0.307c-0.018-0.093,0.014-0.129,0.058-0.129h1.701
			c0.075,0.099,0.068,0.116,0.058,0.13l-0.247,0.306l0.972,1.156C6.379,69.684,6.376,69.698,6.371,69.713z M6.371,58.675
			c-0.235,0.603-0.883,1.037-1.646,1.039c0.002,0,0.004,0.001,0.006,0.001H4.719c0.002,0,0.004-0.001,0.006-0.001
			c-0.763-0.002-1.412-0.436-1.646-1.039c-0.008-0.072-0.001-0.098,0.014-0.118l0.972-1.157l-0.247-0.306
			c-0.018-0.094,0.014-0.13,0.058-0.13h1.701c0.075,0.1,0.068,0.116,0.058,0.13l-0.247,0.306l0.972,1.157
			C6.379,58.646,6.376,58.66,6.371,58.675z M6.371,46.766c-0.235,0.603-0.883,1.038-1.646,1.04c0.002,0,0.004,0.001,0.006,0.001
			H4.719c0.002,0,0.004-0.001,0.006-0.001c-0.763-0.002-1.412-0.437-1.646-1.041c-0.008-0.072-0.001-0.097,0.014-0.117l0.972-1.157
			l-0.247-0.306c-0.018-0.094,0.014-0.129,0.058-0.129H4.54l0.057,0.075c0.035-0.026,0.072-0.049,0.107-0.075h0.871
			c0.075,0.099,0.068,0.115,0.058,0.129l-0.247,0.306l0.972,1.157C6.379,46.736,6.376,46.751,6.371,46.766z M7.159,67.729v-3.142
			h7.823l0.002,3.55l-0.524,0.687h-0.266v-0.044c-0.004-1.085-0.623-2.122-1.624-2.661c-0.302-0.162-0.624-0.275-0.953-0.338
			l0.114-0.525h-1.543l0.114,0.525c-0.334,0.065-0.661,0.182-0.965,0.348c-0.998,0.546-1.611,1.587-1.606,2.673L7.73,68.823H7.293
			C7.213,68.469,7.159,68.105,7.159,67.729z M13.25,68.823H8.667c0.013-0.779,0.443-1.521,1.14-1.915
			c0.708-0.398,1.581-0.401,2.292-0.006C12.801,67.291,13.239,68.039,13.25,68.823z M16.901,74.721
			c-2.282-0.053-4.09-0.627-5.494-1.368c1.016-0.289,2.489-0.249,3.363,0.167c1.02,0.491,2.877,0.47,3.851,0
			c0.975-0.47,2.38-0.426,3.263,0c0.027,0.013,0.06,0.021,0.087,0.034C20.631,74.191,18.966,74.673,16.901,74.721z M23.186,72.89
			c-0.488-0.036-0.953-0.137-1.303-0.306c-0.883-0.427-2.288-0.471-3.263,0c-0.969,0.469-2.815,0.491-3.838,0.005
			c-1.019-0.491-2.876-0.471-3.851,0c-0.158,0.076-0.339,0.12-0.515,0.172c-0.33-0.221-0.625-0.446-0.896-0.672
			c0.499-0.023,0.995-0.113,1.41-0.313c0.971-0.469,2.816-0.491,3.838-0.005c1.02,0.492,2.877,0.471,3.851,0
			c0.975-0.47,2.38-0.427,3.263,0c0.624,0.301,1.607,0.39,2.452,0.265C23.997,72.323,23.621,72.611,23.186,72.89z M25.62,70.705
			c-0.116,0.04-0.232,0.078-0.339,0.13c-0.905,0.438-2.515,0.426-3.397,0c-0.883-0.427-2.288-0.47-3.263,0
			c-0.969,0.468-2.815,0.491-3.838,0.004c-1.019-0.492-2.876-0.469-3.851,0c-0.711,0.343-1.635,0.43-2.426,0.289
			c-0.015-0.017-0.034-0.034-0.048-0.05c-0.37-0.407-0.665-0.882-0.886-1.395h18.651C26.065,70.051,25.858,70.39,25.62,70.705z
			 M20.453,68.823c0.012-0.779,0.443-1.521,1.139-1.915c0.709-0.398,1.582-0.401,2.293-0.006c0.702,0.389,1.14,1.137,1.152,1.921
			H20.453z M26.636,67.729c0,0.377-0.054,0.74-0.134,1.095H25.98v-0.044c-0.003-1.085-0.623-2.122-1.625-2.661
			c-0.302-0.162-0.622-0.275-0.953-0.338l0.113-0.525h-1.542l0.113,0.525c-0.334,0.065-0.659,0.182-0.963,0.348
			c-0.998,0.546-1.61,1.587-1.606,2.673v0.022h-0.388l-0.517-0.69l-0.008-3.546h8.031V67.729z M26.636,62.866
			c-0.936-0.33-3.638-1.356-7.27-3.387c-0.498-0.278-0.962-0.531-1.399-0.765l-0.239-3.066l-0.065-0.899
			c2.67-1.069,5.621-2.136,6.84-2.161c1.053-0.022,1.713,0.195,2.134,0.436V62.866z M26.636,51.941
			c-0.407-0.188-1.071-0.36-2.186-0.34c-1.164,0.021-4.114,1.083-6.858,2.181l-0.106-1.467l-0.65-0.668l-0.04-0.046l-0.046,0.046
			l-0.65,0.668l-0.154,2.138c-1.927,0.799-3.511,1.5-3.923,1.684c-2.448-0.869-4.198-1.251-4.863-1.38v-5.895h19.478V51.941z
			 M30.711,69.713c-0.233,0.604-0.883,1.038-1.644,1.04c0.002,0,0.003,0.001,0.005,0.001h-0.011c0.002,0,0.003-0.001,0.005-0.001
			c-0.762-0.002-1.411-0.437-1.645-1.04c-0.009-0.073-0.003-0.099,0.012-0.118l0.972-1.156l-0.247-0.307
			c-0.018-0.093,0.015-0.129,0.059-0.129h1.7c0.076,0.099,0.068,0.116,0.058,0.13l-0.247,0.306l0.972,1.156
			C30.722,69.684,30.719,69.698,30.711,69.713z M30.711,58.675c-0.233,0.603-0.883,1.037-1.644,1.039
			c0.002,0,0.003,0.001,0.005,0.001h-0.011c0.002,0,0.003-0.001,0.005-0.001c-0.762-0.002-1.411-0.436-1.645-1.039
			c-0.009-0.072-0.003-0.098,0.012-0.118l0.972-1.157l-0.247-0.306c-0.018-0.094,0.015-0.13,0.059-0.13h1.7
			c0.076,0.1,0.068,0.116,0.058,0.13l-0.247,0.306l0.972,1.157C30.722,58.646,30.719,58.66,30.711,58.675z M29.088,45.056
			c0.035,0.026,0.073,0.049,0.107,0.075l0.057-0.075h0.665c0.076,0.099,0.068,0.115,0.058,0.129l-0.247,0.306l0.972,1.157
			c0.022,0.088,0.02,0.104,0.012,0.118c-0.233,0.603-0.883,1.038-1.644,1.041c0.002,0,0.003,0,0.005,0h-0.011
			c0.002,0,0.003,0,0.005,0c-0.762-0.002-1.411-0.438-1.645-1.042c-0.009-0.072-0.003-0.097,0.012-0.117l0.972-1.157l-0.247-0.306
			c-0.018-0.094,0.015-0.129,0.059-0.129H29.088z M30.393,36.849l-1.35,2.438l-0.944-0.501l1.252-2.5
			c0.127-0.241,0.463-0.307,0.705-0.181l0.1,0.053C30.397,36.285,30.52,36.607,30.393,36.849z"/>
	</g>
</g>
</svg>
